<svg xmlns="http://www.w3.org/2000/svg" xmlns:xlink="http://www.w3.org/1999/xlink" width="500" zoomAndPan="magnify" viewBox="0 0 375 374.999991" height="500" preserveAspectRatio="xMidYMid meet" version="1.0"><path fill="#00adef" d="M 187.453125 186.859375 L 123.328125 297.929688 L 187.453125 233.292969 L 251.578125 297.929688 L 187.453125 186.859375 " fill-opacity="1" fill-rule="nonzero"/><path fill="#3871c1" d="M 90.75 297.929688 L 187.453125 130.429688 L 68.199219 250.644531 Z M 90.75 297.929688 " fill-opacity="1" fill-rule="nonzero"/><path fill="#00adef" d="M 68.199219 250.644531 L 187.453125 130.429688 L 284.15625 297.929688 L 187.453125 44.085938 L 68.199219 250.644531 " fill-opacity="1" fill-rule="nonzero"/><path fill="#3871c1" d="M 187.453125 44.085938 L 284.15625 297.929688 L 306.707031 250.644531 Z M 187.453125 44.085938 " fill-opacity="1" fill-rule="nonzero"/><path fill="#00adef" d="M 187.453125 343.15625 C 101.460938 343.15625 31.75 273.449219 31.75 187.453125 C 31.75 101.457031 101.460938 31.75 187.453125 31.75 C 273.449219 31.75 343.15625 101.457031 343.15625 187.453125 C 343.15625 273.449219 273.449219 343.15625 187.453125 343.15625 Z M 187.453125 -0.03125 C 83.910156 -0.03125 -0.03125 83.910156 -0.03125 187.453125 C -0.03125 290.996094 83.910156 374.9375 187.453125 374.9375 C 290.996094 374.9375 374.9375 290.996094 374.9375 187.453125 C 374.9375 83.910156 290.996094 -0.03125 187.453125 -0.03125 " fill-opacity="1" fill-rule="nonzero"/></svg>